<svg width="432" height="432" viewBox="0 0 432 432" fill="none" xmlns="http://www.w3.org/2000/svg">
<path d="M20.6987 209.465C20.9655 209.105 21.3657 208.745 21.8993 208.384C27.7691 204.06 34.1725 200.456 41.5098 198.414C42.0434 198.294 42.577 198.053 43.1106 197.813C45.3785 196.852 47.6463 195.771 49.9142 194.69C50.181 194.57 50.3144 194.45 50.5812 194.33C48.847 194.209 47.2461 194.209 45.6453 193.969C42.3102 193.489 38.9751 192.768 35.9068 191.326C35.2398 190.966 34.4393 190.606 34.5727 189.765C34.8395 188.924 35.64 188.924 36.4404 188.924C41.2429 188.804 46.0455 188.563 50.7146 189.044C53.9163 189.284 57.118 189.645 60.1863 190.726C60.5865 190.846 61.2535 190.846 61.7872 190.726C68.0571 188.804 74.4606 187.482 80.864 186.281C81.1308 186.281 81.3975 186.161 81.6644 186.041C81.3975 185.801 81.1308 185.801 80.864 185.801C76.1948 185.44 71.5256 184.96 66.9899 183.999C63.5214 183.278 60.0529 182.557 56.7178 181.236C55.6506 180.755 54.5834 180.155 53.5161 179.554C52.9825 179.194 52.5823 178.713 52.8491 178.112C53.1159 177.512 53.6495 177.272 54.3165 177.151C55.1169 177.031 55.9174 177.031 56.7178 177.031C65.6559 177.031 74.3272 178.112 82.865 180.275C85.9333 180.995 88.8682 182.077 91.4029 183.878C91.9365 184.239 92.4701 184.359 93.1371 184.239C99.1403 183.638 105.277 183.038 111.28 182.437C111.547 182.437 111.814 182.317 112.214 182.317C111.947 182.077 111.68 182.077 111.413 181.956C107.545 181.236 103.809 180.395 100.074 179.194C96.3388 177.992 92.7369 176.431 89.4018 174.389C88.468 173.788 87.5342 173.067 86.7337 172.226C85.7999 171.145 86.3335 170.184 87.801 170.064C88.6014 170.064 89.4018 170.064 90.2023 170.184C94.6046 170.905 99.1403 171.505 103.543 172.346C110.079 173.548 116.483 175.229 122.619 177.632C125.288 178.713 127.956 179.914 130.223 181.596C130.757 181.956 131.157 182.077 131.824 182.077C139.162 182.197 146.499 182.797 153.836 183.638C154.236 183.638 154.503 183.638 154.903 183.638C153.836 183.158 152.635 182.797 151.568 182.437C144.097 179.674 137.027 176.311 130.49 171.866C127.689 169.944 125.021 167.902 122.886 165.499C122.486 165.019 122.086 164.418 121.819 163.817C121.419 162.856 122.086 162.136 123.286 162.256C123.953 162.376 124.487 162.496 125.154 162.736C129.69 164.298 134.359 165.86 138.895 167.541C143.164 169.103 147.299 170.785 151.168 173.187C155.837 176.07 159.973 179.434 162.641 183.999C162.774 184.239 163.174 184.599 163.574 184.719C165.576 185.32 167.577 185.801 169.578 186.401C170.378 186.641 171.045 186.762 171.846 187.002C172.913 186.281 173.98 185.44 175.047 184.719C176.114 183.999 177.048 183.278 178.249 182.677C180.517 181.356 183.185 181.236 185.72 181.476C185.986 182.437 186.387 183.398 186.653 184.479C184.252 184.96 182.785 186.401 181.584 187.963C180.117 189.765 179.183 191.807 178.516 193.849C178.382 194.209 178.249 194.45 178.249 194.81C178.116 195.651 178.382 196.011 179.183 196.252C179.85 196.372 180.517 196.492 181.317 196.732C183.452 197.213 185.186 198.294 186.52 199.735C185.586 200.936 184.652 202.018 183.718 203.099C183.452 202.979 183.185 202.979 183.051 202.858C179.45 201.297 176.515 199.255 174.647 196.011C173.18 193.729 171.846 191.326 170.378 189.044C168.911 188.684 167.577 188.323 166.109 188.083C164.642 187.723 163.041 187.482 161.707 187.242C160.506 188.443 159.572 189.645 158.372 190.606C155.837 192.648 153.302 194.57 150.634 196.372C143.964 200.696 136.627 203.339 128.356 204.18C126.755 204.3 125.021 204.3 123.286 204.3C122.353 204.3 121.419 203.94 120.618 203.579C119.418 202.979 119.284 202.018 120.218 201.177C120.752 200.576 121.419 200.096 122.086 199.735C126.221 197.213 130.49 194.69 134.759 192.287C139.562 189.645 144.631 187.362 150.101 186.041C150.101 186.041 150.101 185.921 150.234 185.801C148.1 185.68 146.099 185.44 143.964 185.32C139.562 185.08 135.293 184.96 130.89 184.839C130.357 184.839 129.957 184.719 129.556 185.2C126.622 188.443 123.153 191.206 119.284 193.609C117.95 194.45 116.616 195.17 115.282 196.011C110.88 198.774 106.077 201.057 100.875 202.258C98.6067 202.738 96.4722 202.979 94.2044 202.618C93.4039 202.498 92.6035 202.258 91.9365 202.018C90.3356 201.297 90.2022 200.216 91.2695 199.014C91.6697 198.654 92.0699 198.294 92.6035 197.933C94.6046 196.492 96.6056 195.05 98.6067 193.729C103.142 190.726 107.812 187.843 112.881 185.68C113.014 185.68 113.014 185.56 113.281 185.32C104.743 185.801 96.4722 186.641 88.3346 187.963C88.0678 188.804 87.9343 189.524 87.6675 190.245C86.7337 193.368 85.1329 196.131 83.3986 198.894C81.2642 202.258 78.3293 204.781 74.3271 206.342C72.7263 207.063 70.992 207.423 69.2578 207.664C68.0572 207.784 66.9899 207.784 65.9227 207.303C64.5887 206.703 64.1885 205.742 64.8555 204.66C65.2557 204.06 65.7893 203.459 66.3229 202.979C68.3239 201.057 70.325 199.135 72.4595 197.213C75.5278 194.33 78.7295 191.567 82.3314 189.164C82.4648 189.164 82.4648 189.044 82.4648 188.924C82.3314 188.924 82.198 188.924 82.198 188.924C75.5278 190.125 68.991 191.446 62.5876 193.368C61.9206 193.609 61.6538 193.849 61.5204 194.45C60.7199 198.534 58.7189 202.138 55.5172 205.261C53.6495 207.063 51.6484 208.865 49.1138 209.946C48.0465 210.426 46.8459 210.667 45.7787 210.787C44.9782 210.907 44.1778 210.667 43.7776 209.946C43.3774 209.225 43.6442 208.625 44.1778 208.024C44.5781 207.423 45.1117 206.823 45.5119 206.222C48.0466 203.099 50.3144 199.735 53.3827 196.852C53.3827 196.852 53.3827 196.732 53.3827 196.612C53.2493 196.612 53.1159 196.612 52.9825 196.732C49.6474 198.174 46.3123 199.735 43.1106 201.177C42.8438 201.297 42.577 201.537 42.3102 201.777C40.3091 204.18 37.7744 206.222 35.2398 208.024C31.9047 210.426 28.0359 211.868 23.767 212.349C23.1 212.469 22.2995 212.469 21.6325 212.349C20.4319 211.628 19.8983 210.426 20.6987 209.465Z" fill="#6E2521"/>
<path d="M206.264 209.345C208.532 206.703 211.467 204.66 214.802 203.219C216.002 202.738 217.07 201.897 217.737 200.816C218.537 199.615 219.337 198.294 220.271 197.213C223.606 192.888 227.875 189.524 233.612 188.083C234.812 187.723 235.88 187.482 237.08 187.482C236.813 189.044 236.413 190.606 236.28 192.167C236.146 193.609 236.28 195.05 236.28 196.492C236.28 198.894 236.013 201.297 235.212 203.699C234.545 205.742 233.878 207.784 233.211 209.946C232.144 213.189 232.011 216.433 233.478 219.676C232.144 219.676 230.944 219.556 229.876 219.556C227.208 219.676 224.674 220.157 222.272 220.998C217.737 222.439 213.067 222.799 208.265 222.319C205.864 222.079 203.329 221.959 200.794 222.199C200.127 222.319 199.46 222.319 198.66 222.439C198.927 221.598 199.06 220.998 199.327 220.397C201.328 216.433 203.462 212.709 206.264 209.345Z" fill="#6E2521"/>
<path d="M232.811 185.56C232.544 186.041 232.144 186.521 231.477 186.641C228.542 187.482 226.008 189.044 223.74 190.966C223.473 191.086 223.339 191.326 222.939 191.567C223.339 189.404 223.74 187.482 224.14 185.56C224.54 183.999 225.207 182.677 226.408 181.596C226.675 181.356 226.808 181.236 226.941 180.995C227.475 180.275 227.208 179.554 226.274 179.314C225.741 179.194 225.074 179.073 224.54 178.953C223.339 178.833 222.005 178.833 220.805 178.713C220.004 174.148 218.67 169.824 215.068 166.22C215.602 165.859 216.136 165.379 216.669 165.139C217.87 164.658 219.204 164.058 220.538 163.697C224.674 162.616 229.076 162.976 233.345 162.136C233.345 162.616 233.345 163.097 233.345 163.457C233.345 164.658 233.345 165.98 233.478 167.181C233.612 169.103 234.012 170.905 234.279 172.827C234.545 174.989 234.946 177.272 234.679 179.434C234.279 181.716 233.878 183.758 232.811 185.56Z" fill="#6E2521"/>
<path d="M236.413 206.582C236.68 205.621 236.813 205.501 237.881 205.621C240.015 205.742 242.283 205.742 244.417 206.102C251.621 207.303 258.158 210.066 264.161 213.91C264.428 214.15 264.828 214.391 265.095 214.631C261.493 214.511 258.291 215.232 255.223 216.553C252.555 217.634 250.02 218.835 247.352 219.796C245.751 220.397 244.151 220.998 242.55 221.358C240.549 221.838 238.681 221.718 236.813 220.998C236.28 220.757 236.013 220.517 235.746 220.037C234.679 218.115 234.412 216.193 234.545 214.15C234.679 211.508 235.613 209.105 236.413 206.582Z" fill="#6E2521"/>
<path d="M171.312 215.352C174.113 211.628 177.849 208.745 181.851 206.102C181.984 205.982 182.251 205.982 182.518 205.742C182.384 206.102 182.384 206.342 182.251 206.582C181.851 208.264 181.451 209.946 181.184 211.628C180.784 214.271 181.317 216.913 181.717 219.436C181.851 220.397 182.518 220.757 183.585 220.517C183.718 220.517 183.852 220.397 184.119 220.397C185.453 219.916 186.92 219.796 188.254 219.796C190.389 219.676 192.657 219.556 194.791 219.436C195.325 219.436 195.858 219.316 196.392 219.196C196.392 219.316 196.392 219.436 196.392 219.556C196.258 219.676 196.258 219.796 196.125 219.916C194.524 222.199 191.99 223.52 189.188 224.361C185.72 225.442 182.118 225.923 178.516 226.403C174.38 227.004 170.245 227.845 166.509 229.887C166.376 230.007 166.243 230.007 165.709 230.127C165.842 228.325 165.976 226.884 166.243 225.322C167.043 221.838 168.911 218.475 171.312 215.352Z" fill="#6E2521"/>
<path d="M183.852 218.955C183.718 218.955 183.585 218.955 183.452 218.955C181.851 213.189 184.519 203.459 187.987 200.456C188.254 200.696 188.654 200.936 188.921 201.057C191.456 202.618 194.124 203.94 197.192 204.54C199.193 204.901 201.194 204.901 203.195 205.021C204.663 205.141 206.13 205.021 207.865 205.021C207.464 205.381 207.331 205.621 207.064 205.742C205.864 207.063 204.396 208.264 203.462 209.706C201.995 211.628 200.794 213.67 199.727 215.832C199.327 216.673 198.793 217.033 197.859 217.154C195.058 217.634 192.39 217.994 189.455 217.994C187.587 218.115 185.586 218.235 183.852 218.955Z" fill="#6E2521"/>
<path d="M200.794 203.219C195.858 203.099 191.589 201.417 188.121 198.174C187.587 197.693 187.054 197.333 186.52 196.852C185.053 195.651 183.452 194.93 181.584 194.69C181.05 194.57 180.65 194.57 180.117 194.45C180.784 192.648 181.451 190.966 182.518 189.524C183.452 188.203 184.519 186.882 186.12 185.921C186.52 185.68 187.054 185.44 187.587 185.2C187.854 185.44 187.987 185.68 188.121 185.801C189.855 187.843 192.123 189.404 194.924 190.005C196.258 190.365 197.726 190.606 199.06 190.726C200.661 190.846 202.395 190.846 203.996 190.966C204.263 192.648 204.396 194.33 204.663 196.131C203.729 196.011 202.795 195.771 201.861 195.651C198.526 195.05 195.191 194.57 192.523 192.648C192.256 192.407 191.856 192.407 191.456 192.768C191.189 193.128 191.323 193.489 191.589 193.609C191.99 193.969 192.523 194.209 193.057 194.57C195.725 196.131 198.793 196.732 201.995 197.213C205.997 197.813 209.065 199.735 211.733 202.738C211.066 202.979 210.399 203.339 209.866 203.339C206.931 203.339 203.863 203.339 200.794 203.219Z" fill="#6E2521"/>
<path d="M239.215 187.843C239.481 187.122 239.882 186.641 240.815 186.521C242.416 186.401 243.884 186.161 245.485 186.041C250.554 185.801 255.49 186.281 260.426 187.723C261.226 187.963 262.027 188.323 263.094 188.684C262.427 188.924 262.16 189.044 261.76 189.164C257.891 190.365 254.423 192.047 251.088 194.209C249.753 195.05 248.553 195.891 247.219 196.732C244.818 198.294 242.283 199.375 239.481 200.216C239.081 200.336 238.814 200.336 238.281 200.456C238.281 199.495 238.414 198.654 238.414 197.813C238.414 196.011 238.414 194.089 238.414 192.287C238.548 190.726 238.681 189.284 239.215 187.843Z" fill="#6E2521"/>
<path d="M175.181 199.014C177.048 201.177 179.583 202.618 182.384 203.94C170.912 209.826 164.241 219.196 163.708 228.806C161.573 224.001 160.906 219.076 162.507 214.03C164.642 207.543 168.377 202.258 175.181 199.014Z" fill="#6E2521"/>
<path d="M219.337 178.953C219.337 179.073 219.337 179.073 219.337 179.073C218.003 179.674 216.803 180.155 215.469 180.755C215.335 179.794 215.202 178.953 215.068 177.992C214.535 175.35 214.001 172.707 213.468 170.064C213.334 169.223 212.801 168.622 211.867 168.502C211.333 168.382 210.666 168.262 210.132 168.382C208.532 168.622 206.931 169.103 205.73 170.064C205.063 170.665 204.53 171.265 203.729 171.986C201.194 170.665 198.393 170.184 195.725 169.463C195.591 169.463 195.458 169.343 195.191 169.343C193.991 169.223 193.457 169.704 193.724 170.785C193.857 171.145 193.991 171.626 194.124 171.986C194.257 172.226 194.257 172.466 194.257 172.707C192.657 172.346 191.189 171.986 189.588 171.626C189.855 170.064 190.655 168.863 191.723 167.902C192.657 167.061 193.724 166.22 194.791 165.499C196.659 164.178 198.393 162.616 199.727 160.814C199.86 160.574 200.127 160.334 200.394 160.093C200.794 160.334 201.061 160.454 201.328 160.694C203.729 162.256 206.397 163.577 208.932 164.778C210.132 165.379 211.333 165.86 212.4 166.46C214.001 167.301 215.202 168.502 216.002 169.944C217.737 172.947 218.804 175.95 219.337 178.953Z" fill="#6E2521"/>
<path d="M253.622 206.462C248.419 204.901 243.083 203.579 237.347 203.819C237.614 203.219 237.747 202.738 237.881 202.378C239.215 202.018 240.415 201.777 241.616 201.537C244.417 200.696 246.819 199.495 249.086 197.933C249.754 197.573 250.287 197.213 250.954 196.732C253.222 197.813 255.356 199.135 257.224 200.456C260.026 201.177 262.961 201.777 265.762 202.498C267.229 202.858 268.83 203.099 270.164 203.339C271.365 202.138 272.299 200.936 273.499 199.975C276.034 197.933 278.569 196.011 281.237 194.209C287.907 189.885 295.244 187.242 303.515 186.401C305.116 186.281 306.85 186.281 308.585 186.281C309.519 186.281 310.452 186.641 311.253 187.002C312.453 187.602 312.587 188.563 311.653 189.404C311.119 190.005 310.452 190.485 309.785 190.846C305.65 193.368 301.381 195.891 297.112 198.294C292.309 200.936 287.24 203.219 281.77 204.54C281.77 204.54 281.77 204.66 281.637 204.78C283.772 204.901 285.773 205.141 287.907 205.261C292.309 205.501 296.578 205.621 300.981 205.742C301.514 205.742 301.914 205.862 302.315 205.381C305.25 202.138 308.718 199.375 312.587 196.972C313.921 196.131 315.255 195.411 316.589 194.57C320.991 191.807 325.794 189.524 330.997 188.323C333.264 187.843 335.399 187.602 337.667 187.963C338.467 188.083 339.268 188.323 339.935 188.563C341.536 189.284 341.669 190.365 340.602 191.567C340.201 191.927 339.801 192.287 339.268 192.648C337.267 194.089 335.266 195.531 333.264 196.852C328.729 199.855 324.06 202.738 318.99 204.901C318.857 204.901 318.857 205.021 318.59 205.261C327.128 204.78 335.399 203.94 343.537 202.618C343.803 201.777 343.937 201.057 344.204 200.336C345.137 197.213 346.738 194.45 348.473 191.687C350.607 188.323 353.542 185.8 357.544 184.239C359.145 183.518 360.879 183.158 362.613 182.917C363.814 182.797 364.881 182.797 365.948 183.278C367.282 183.878 367.683 184.839 367.016 185.921C366.615 186.521 366.082 187.122 365.548 187.602C363.547 189.524 361.546 191.446 359.412 193.368C356.343 196.252 353.142 199.014 349.54 201.417C349.406 201.417 349.406 201.537 349.406 201.657C349.54 201.657 349.673 201.657 349.673 201.657C356.343 200.456 362.88 199.135 369.284 197.213C369.951 196.972 370.217 196.732 370.351 196.131C371.151 192.047 373.152 188.443 376.354 185.32C378.222 183.518 380.223 181.716 382.757 180.635C383.825 180.155 385.025 179.914 386.092 179.794C386.893 179.674 387.693 179.914 388.094 180.635C388.494 181.356 388.227 181.956 387.693 182.557C387.293 183.158 386.759 183.758 386.359 184.359C383.825 187.482 381.557 190.846 378.488 193.729C378.488 193.729 378.488 193.849 378.488 193.969C378.622 193.969 378.755 193.969 378.889 193.849C382.224 192.407 385.559 190.846 388.761 189.404C389.027 189.284 389.294 189.044 389.561 188.804C391.562 186.401 394.097 184.359 396.631 182.557C399.966 180.155 403.835 178.713 408.104 178.233C408.771 178.112 409.572 178.112 410.239 178.233C411.573 178.473 412.106 179.554 411.306 180.635C411.039 180.995 410.639 181.356 410.105 181.716C404.235 186.041 397.832 189.645 390.495 191.687C389.961 191.807 389.428 192.047 388.894 192.287C386.626 193.248 384.358 194.329 382.09 195.411C381.824 195.531 381.69 195.651 381.423 195.771C383.158 195.891 384.758 195.891 386.359 196.131C389.694 196.612 393.029 197.333 396.098 198.774C396.765 199.135 397.565 199.495 397.432 200.336C397.165 201.177 396.365 201.177 395.564 201.177C390.762 201.297 385.959 201.537 381.29 201.057C378.088 200.816 374.887 200.456 371.818 199.375C371.418 199.255 370.751 199.255 370.217 199.375C363.947 201.297 357.544 202.618 351.141 203.819C350.874 203.819 350.607 203.94 350.34 204.06C350.607 204.3 350.874 204.3 351.141 204.3C355.81 204.66 360.479 205.141 365.015 206.102C368.483 206.823 371.952 207.543 375.287 208.865C376.354 209.345 377.421 209.946 378.488 210.547C379.022 210.907 379.422 211.387 379.155 211.988C378.889 212.589 378.355 212.829 377.688 212.949C376.888 213.069 376.087 213.069 375.287 213.069C366.349 213.069 357.677 211.988 349.14 209.826C346.071 209.105 343.136 208.024 340.602 206.222C340.068 205.862 339.534 205.741 338.867 205.862C332.864 206.462 326.728 207.063 320.724 207.664C320.458 207.664 320.191 207.784 319.791 207.784C320.057 208.024 320.324 208.024 320.591 208.144C324.46 208.865 328.195 209.706 331.93 210.907C335.666 212.108 339.268 213.67 342.603 215.712C343.537 216.313 344.47 217.033 345.271 217.874C346.205 218.955 345.671 219.916 344.204 220.037C343.403 220.037 342.603 220.037 341.802 219.916C337.4 219.196 332.864 218.595 328.462 217.754C321.925 216.553 315.522 214.871 309.385 212.469C306.717 211.387 304.049 210.186 301.781 208.504C301.247 208.144 300.847 208.024 300.18 208.024C292.843 207.904 285.506 207.303 278.169 206.462C277.768 206.462 277.502 206.462 277.101 206.462C278.169 206.943 279.369 207.303 280.436 207.664C287.907 210.426 294.977 213.79 301.514 218.235C304.316 220.157 306.984 222.199 309.118 224.601C309.519 225.082 309.919 225.683 310.186 226.283C310.586 227.244 309.919 227.965 308.718 227.845C308.051 227.725 307.517 227.605 306.85 227.364C302.315 225.803 297.646 224.241 293.11 222.559C288.841 220.998 284.705 219.316 280.837 216.913C276.168 214.03 272.032 210.667 269.364 206.102C269.23 205.862 268.83 205.501 268.43 205.381C266.429 204.78 264.428 204.3 262.427 203.699C262.16 203.579 261.893 203.579 261.493 203.459C264.295 206.342 266.429 209.706 268.03 213.43C263.494 210.907 258.958 208.144 253.622 206.462Z" fill="#6E2521"/>
<path d="M242.95 184.599C240.415 184.839 238.014 185.56 235.613 185.801C235.212 185.801 234.946 185.801 234.412 185.921C236.013 183.398 236.546 180.755 236.546 177.992C236.813 177.872 236.947 177.872 236.947 177.872C237.213 177.872 237.347 177.752 237.614 177.752C240.148 177.392 242.816 177.392 245.351 177.752C250.954 178.473 256.023 180.275 260.426 183.638C261.493 184.479 262.427 185.44 263.494 186.401C263.628 186.521 263.761 186.762 263.894 187.122C263.627 187.002 263.494 187.002 263.361 187.002C256.557 184.359 249.753 183.878 242.95 184.599Z" fill="#6E2521"/>
<path d="M210.666 169.944C211.6 169.824 211.867 170.064 211.867 170.905C211.867 171.385 211.867 171.866 212 172.346C212.4 174.388 212.801 176.431 213.201 178.473C213.734 181.356 213.334 183.878 211.333 186.281C210.266 187.482 209.465 188.924 208.665 190.245C207.598 192.047 207.064 193.969 207.198 196.011C207.198 196.252 207.198 196.492 207.198 196.732C206.797 196.612 206.397 196.492 205.997 196.252C205.997 195.05 205.864 194.089 205.864 193.008C205.73 190.726 205.997 188.443 206.931 186.401C207.598 184.84 208.131 183.398 208.798 181.836C209.332 180.515 209.599 179.194 209.465 177.752C209.332 176.791 209.065 175.71 208.798 174.749C208.665 174.388 208.398 174.148 207.998 174.148C207.464 174.268 207.464 174.509 207.464 174.869C207.464 175.109 207.598 175.35 207.598 175.59C207.598 175.95 207.731 176.19 207.731 176.551H207.598C206.797 175.229 205.997 174.028 205.197 172.707C205.33 172.466 205.463 172.226 205.73 172.106C206.797 170.665 208.665 170.184 210.666 169.944Z" fill="#6E2521"/>
<path d="M194.257 175.95C193.991 177.272 193.724 178.593 193.59 179.794C193.324 181.956 193.991 183.758 195.591 185.44C197.059 186.882 198.793 187.963 200.661 188.684C201.061 188.804 201.461 189.044 201.861 189.164C201.861 189.284 201.861 189.284 201.861 189.404C200.127 189.164 198.26 189.044 196.525 188.684C192.39 187.963 188.388 185.08 187.854 179.914C187.721 177.992 187.187 176.19 186.12 174.509C186.12 174.389 185.986 174.268 185.986 174.148C188.921 173.427 191.723 173.668 194.658 174.509C194.391 174.989 194.257 175.47 194.257 175.95Z" fill="#6E2521"/>
<path d="M206.531 178.593C207.064 179.314 207.865 179.674 207.598 180.515C206.664 183.038 205.597 185.44 204.663 187.963C203.062 187.602 201.595 187.242 200.261 186.641C198.793 186.041 197.459 185.08 196.525 183.878C195.591 182.797 195.325 181.716 195.591 180.395C195.725 179.554 195.858 178.593 196.125 177.752C196.525 175.59 197.192 173.548 195.858 171.145C197.726 171.746 199.327 172.226 200.928 172.707C203.062 173.307 203.862 174.869 204.663 176.671C204.129 176.551 203.729 176.431 203.329 176.311C201.995 175.95 200.527 175.95 199.193 176.431C198.126 176.791 197.726 177.392 198.126 178.353C198.26 178.593 198.393 178.953 198.393 179.194C198.927 180.515 199.193 181.956 199.193 183.518C198.793 183.518 198.393 183.398 198.126 183.518C197.859 183.638 197.592 183.758 197.326 183.999C197.459 184.239 197.592 184.479 197.859 184.599C198.26 184.719 198.793 184.839 199.193 184.839C202.795 185.2 205.997 182.797 206.531 179.674C206.531 179.314 206.531 179.073 206.531 178.593Z" fill="#6E2521"/>
<path d="M216.136 182.077C217.737 181.116 219.471 180.755 221.338 180.635C222.406 180.515 223.339 180.515 224.54 180.755C224.407 180.995 224.273 181.116 224.273 181.236C223.073 182.677 222.406 184.239 222.005 185.921C221.739 187.002 221.472 188.083 221.338 189.284C221.072 191.446 219.738 193.008 217.737 193.969C216.402 194.57 215.068 195.291 213.868 196.011C213.334 196.252 212.934 196.612 212.4 196.972L212.267 196.852C212.667 196.372 212.934 196.011 213.334 195.531C214.668 194.33 216.002 193.128 217.336 191.927C219.738 189.765 220.538 187.122 219.871 184.119C219.738 183.638 219.738 183.038 219.071 183.038C218.404 183.038 218.537 183.638 218.537 184.119C218.537 184.719 218.537 185.2 218.537 185.801C218.537 186.041 218.404 186.401 218.404 186.641C217.203 185.56 216.136 184.479 215.068 183.398C215.335 182.557 215.335 182.557 216.136 182.077Z" fill="#6E2521"/>
<path d="M217.87 188.684C217.203 189.404 216.536 190.245 215.869 190.846C214.668 192.047 213.334 193.248 212 194.45C211.066 195.411 210.266 196.492 209.866 197.693C209.866 197.933 209.732 198.053 209.599 198.294C209.332 198.174 209.199 198.053 209.065 198.053C208.932 197.933 208.798 197.813 208.532 197.693C208.665 194.57 208.798 193.368 209.866 191.567C211.2 189.404 212.667 187.242 214.268 185.08C216.002 186.041 216.936 187.362 217.87 188.684Z" fill="#6E2521"/>
<path d="M213.067 201.897C212.534 201.297 212.134 200.696 211.733 200.096C213.601 197.693 216.269 196.492 219.204 195.411C218.003 197.092 216.936 198.774 215.869 200.336C215.202 201.177 214.135 201.657 213.067 201.897Z" fill="#6E2521"/>
<path d="M200.261 183.278C200.261 182.437 200.261 181.596 200.261 180.635C201.861 180.875 203.195 180.395 204.663 179.674C203.996 181.836 202.128 183.278 200.261 183.278Z" fill="#6E2521"/>
<path d="M199.327 177.752C201.061 177.272 202.528 177.392 204.129 178.112C203.462 178.953 202.528 179.194 201.728 179.314C200.127 179.674 199.594 179.314 199.327 177.752Z" fill="#6E2521"/>
</svg>
